<svg xmlns="http://www.w3.org/2000/svg" viewBox="0 0 1200 900" role="img" aria-labelledby="title desc">
  <title id="title">ElectIQ Indian election civic dashboard illustration</title>
  <desc id="desc">Indian election themed illustration with voters, polling booth, EVM, VVPAT, tricolor shapes, and data panels.</desc>
  <defs>
    <linearGradient id="sky" x1="0" x2="1" y1="0" y2="1">
      <stop offset="0" stop-color="#fff7ed"/>
      <stop offset=".48" stop-color="#eef4ff"/>
      <stop offset="1" stop-color="#e8f5e6"/>
    </linearGradient>
    <linearGradient id="tri" x1="0" x2="1">
      <stop offset="0" stop-color="#ff7a1a"/>
      <stop offset=".48" stop-color="#ffffff"/>
      <stop offset="1" stop-color="#138808"/>
    </linearGradient>
    <filter id="shadow" x="-20%" y="-20%" width="140%" height="140%">
      <feDropShadow dx="0" dy="18" stdDeviation="22" flood-color="#121826" flood-opacity=".18"/>
    </filter>
  </defs>
  <rect width="1200" height="900" fill="url(#sky)"/>
  <path d="M0 110c205 74 382 79 532 16 202-84 400-65 668 72V0H0Z" fill="#ff7a1a" opacity=".22"/>
  <path d="M0 735c193-74 394-88 604-21 212 68 403 42 596-76v262H0Z" fill="#138808" opacity=".18"/>
  <g opacity=".28" stroke="#1e40af" stroke-width="2">
    <path d="M70 160h1060M70 240h1060M70 320h1060M70 400h1060M70 480h1060M70 560h1060M70 640h1060"/>
    <path d="M120 100v620M240 100v620M360 100v620M480 100v620M600 100v620M720 100v620M840 100v620M960 100v620M1080 100v620"/>
  </g>
  <g transform="translate(520 310)" opacity=".12">
    <circle r="152" fill="none" stroke="#1e40af" stroke-width="16"/>
    <circle r="9" fill="#1e40af"/>
    <g stroke="#1e40af" stroke-width="8">
      <path d="M0-152V152M-152 0H152M-107-107 107 107M107-107-107 107"/>
      <path d="M-39-147 39 147M39-147-39 147M-147-39 147 39M-147 39 147-39"/>
    </g>
  </g>
  <g filter="url(#shadow)">
    <rect x="82" y="188" width="320" height="430" rx="22" fill="#ffffff"/>
    <rect x="112" y="222" width="260" height="68" rx="12" fill="#1e40af"/>
    <text x="132" y="264" fill="#fff" font-family="Fira Sans, Arial" font-size="27" font-weight="800">Voter Desk</text>
    <rect x="120" y="326" width="230" height="16" rx="8" fill="#dce3ee"/>
    <rect x="120" y="362" width="170" height="16" rx="8" fill="#dce3ee"/>
    <rect x="120" y="410" width="230" height="104" rx="14" fill="#fff4eb" stroke="#ffd2ad"/>
    <circle cx="165" cy="462" r="27" fill="#ff7a1a"/>
    <rect x="205" y="440" width="112" height="14" rx="7" fill="#e85d04"/>
    <rect x="205" y="470" width="82" height="12" rx="6" fill="#f2b27c"/>
    <rect x="120" y="540" width="96" height="40" rx="9" fill="#138808"/>
    <text x="145" y="566" fill="#fff" font-family="Fira Sans, Arial" font-size="18" font-weight="800">EPIC</text>
  </g>
  <g filter="url(#shadow)" transform="translate(768 180)">
    <rect width="300" height="408" rx="26" fill="#ffffff"/>
    <rect x="38" y="42" width="224" height="96" rx="16" fill="#eaf0ff"/>
    <text x="68" y="84" fill="#1e40af" font-family="Fira Sans, Arial" font-size="28" font-weight="800">EVM</text>
    <text x="68" y="116" fill="#5f6b7a" font-family="Fira Sans, Arial" font-size="18" font-weight="700">Ballot Unit</text>
    <g transform="translate(44 174)">
      <rect width="212" height="46" rx="10" fill="#f8fafc" stroke="#dce3ee"/>
      <circle cx="30" cy="23" r="11" fill="#ff7a1a"/>
      <rect x="58" y="15" width="80" height="16" rx="8" fill="#cbd5e1"/>
      <circle cx="180" cy="23" r="13" fill="#1e40af"/>
    </g>
    <g transform="translate(44 240)">
      <rect width="212" height="46" rx="10" fill="#f8fafc" stroke="#dce3ee"/>
      <circle cx="30" cy="23" r="11" fill="#138808"/>
      <rect x="58" y="15" width="80" height="16" rx="8" fill="#cbd5e1"/>
      <circle cx="180" cy="23" r="13" fill="#1e40af"/>
    </g>
    <g transform="translate(44 306)">
      <rect width="212" height="46" rx="10" fill="#f8fafc" stroke="#dce3ee"/>
      <circle cx="30" cy="23" r="11" fill="#1e40af"/>
      <rect x="58" y="15" width="80" height="16" rx="8" fill="#cbd5e1"/>
      <circle cx="180" cy="23" r="13" fill="#1e40af"/>
    </g>
  </g>
  <g filter="url(#shadow)" transform="translate(470 565)">
    <rect x="0" y="0" width="282" height="150" rx="22" fill="#ffffff"/>
    <rect x="32" y="32" width="74" height="86" rx="12" fill="#eaf0ff" stroke="#b7c7ee"/>
    <path d="m54 73 17 17 35-43" fill="none" stroke="#138808" stroke-width="10" stroke-linecap="round" stroke-linejoin="round"/>
    <rect x="132" y="34" width="108" height="16" rx="8" fill="#ff7a1a"/>
    <rect x="132" y="68" width="92" height="14" rx="7" fill="#cbd5e1"/>
    <rect x="132" y="98" width="118" height="14" rx="7" fill="#cbd5e1"/>
  </g>
  <g transform="translate(215 642)">
    <circle cx="0" cy="-106" r="46" fill="#8d5a3b"/>
    <path d="M-72 28c8-68 36-106 72-106s64 38 72 106Z" fill="#1e40af"/>
    <path d="M-48-114c18-44 78-44 96 0-18 20-78 20-96 0Z" fill="#121826"/>
    <path d="M-24-84c16 15 32 15 48 0" fill="none" stroke="#3f2415" stroke-width="5" stroke-linecap="round"/>
    <rect x="-62" y="26" width="124" height="86" rx="18" fill="#1e40af"/>
  </g>
  <g transform="translate(912 664)">
    <circle cx="0" cy="-116" r="43" fill="#9f6a45"/>
    <path d="M-66 18c8-63 34-100 66-100s58 37 66 100Z" fill="#138808"/>
    <path d="M-45-130c18-34 72-30 89 6-11 22-69 25-89-6Z" fill="#2b160f"/>
    <path d="M-21-95c14 13 28 13 42 0" fill="none" stroke="#4b2b1c" stroke-width="5" stroke-linecap="round"/>
    <rect x="-58" y="16" width="116" height="92" rx="18" fill="#138808"/>
  </g>
  <g transform="translate(550 142)" filter="url(#shadow)">
    <rect width="198" height="124" rx="18" fill="#ffffff"/>
    <text x="24" y="42" fill="#121826" font-family="Fira Sans, Arial" font-size="20" font-weight="800">Fact Check</text>
    <rect x="24" y="62" width="138" height="12" rx="6" fill="#dce3ee"/>
    <rect x="24" y="88" width="92" height="12" rx="6" fill="#dce3ee"/>
    <circle cx="161" cy="84" r="20" fill="#138808"/>
    <path d="m151 84 7 7 14-17" fill="none" stroke="#fff" stroke-width="5" stroke-linecap="round" stroke-linejoin="round"/>
  </g>
  <path d="M0 803h1200v97H0Z" fill="url(#tri)" opacity=".95"/>
</svg>
